<svg id="_1st_plane" data-name="1st plane" xmlns="http://www.w3.org/2000/svg" xmlns:xlink="http://www.w3.org/1999/xlink" viewBox="0 0 600 300">
  <defs>
    <linearGradient id="linear-gradient" x1="300" y1="300" x2="300" gradientUnits="userSpaceOnUse">
      <stop offset="0" stop-color="#c2c2c2"/>
      <stop offset="1" stop-color="#fff"/>
    </linearGradient>
  </defs>
  <rect width="600" height="300" style="fill: url(#linear-gradient)"/>
  <g>
    <g>
      <polygon points="468.52 300 468.52 145.9 457.12 150.97 426.89 164.39 426.89 300 468.52 300" style="fill: #cecece"/>
      <polygon points="457.12 300 457.12 150.97 426.89 164.39 426.89 300 457.12 300" style="fill: #c1c1c1"/>
      <path d="M454.12,152.3v88.19h-1.05V152.76Zm-14,6.19-1.05.47v81.53h1.05Zm7-3.09-1.05.46v84.63h1.05Z" style="fill: #cecece"/>
    </g>
    <g>
      <polygon points="434.68 300 431.68 70.85 379.29 70.85 376.29 300 434.68 300" style="fill: #c1c1c1"/>
      <polygon points="434.68 300 431.68 70.85 389.31 70.85 386.31 300 434.68 300" style="fill: #cecece"/>
      <g>
        <polygon points="378.28 147.91 432.69 147.91 432.67 146.34 378.3 146.34 378.28 147.91" style="fill: #aaa"/>
        <polygon points="378.41 137.97 432.56 137.97 432.54 136.4 378.43 136.4 378.41 137.97" style="fill: #aaa"/>
        <polygon points="378.15 157.85 432.82 157.85 432.8 156.28 378.17 156.28 378.15 157.85" style="fill: #aaa"/>
        <polygon points="378.02 167.79 432.95 167.79 432.93 166.22 378.04 166.22 378.02 167.79" style="fill: #aaa"/>
        <polygon points="377.89 177.74 433.08 177.74 433.06 176.16 377.91 176.16 377.89 177.74" style="fill: #aaa"/>
        <polygon points="378.8 108.14 432.17 108.14 432.15 106.57 378.82 106.57 378.8 108.14" style="fill: #aaa"/>
        <polygon points="379.06 88.26 431.91 88.26 431.89 86.69 379.08 86.69 379.06 88.26" style="fill: #aaa"/>
        <polygon points="433.19 186.11 377.78 186.11 377.76 187.68 433.21 187.68 433.19 186.11" style="fill: #aaa"/>
        <polygon points="378.54 128.03 432.43 128.03 432.41 126.45 378.56 126.45 378.54 128.03" style="fill: #aaa"/>
        <polygon points="378.67 118.08 432.3 118.08 432.28 116.51 378.69 116.51 378.67 118.08" style="fill: #aaa"/>
        <polygon points="378.93 98.2 432.04 98.2 432.02 96.63 378.95 96.63 378.93 98.2" style="fill: #aaa"/>
      </g>
      <g>
        <polygon points="376.61 275.51 376.58 277.23 434.38 277.23 434.36 275.51 376.61 275.51" style="fill: #aaa"/>
        <polygon points="376.74 265.57 376.71 267.29 434.25 267.29 434.23 265.57 376.74 265.57" style="fill: #aaa"/>
        <polygon points="376.48 285.46 376.45 287.18 434.51 287.18 434.49 285.46 376.48 285.46" style="fill: #aaa"/>
        <polygon points="376.35 295.4 376.32 297.12 434.64 297.12 434.62 295.4 376.35 295.4" style="fill: #aaa"/>
        <polygon points="376.87 255.63 376.84 257.35 434.12 257.35 434.1 255.63 376.87 255.63" style="fill: #aaa"/>
        <polygon points="377.52 205.92 377.5 207.64 433.47 207.64 433.45 205.92 377.52 205.92" style="fill: #aaa"/>
        <polygon points="377.39 215.86 377.37 217.58 433.6 217.58 433.58 215.86 377.39 215.86" style="fill: #aaa"/>
        <polygon points="377.65 195.98 377.63 197.69 433.34 197.69 433.32 195.98 377.65 195.98" style="fill: #aaa"/>
        <polygon points="377.26 225.8 377.24 227.52 433.73 227.52 433.71 225.8 377.26 225.8" style="fill: #aaa"/>
        <polygon points="377.13 235.75 377.11 237.46 433.86 237.46 433.84 235.75 377.13 235.75" style="fill: #aaa"/>
        <polygon points="377 245.69 376.97 247.41 433.99 247.41 433.97 245.69 377 245.69" style="fill: #aaa"/>
      </g>
    </g>
    <g>
      <polygon points="542.77 300 542.22 104.66 542.22 92.99 538.33 92.99 538.33 101.97 535.07 101.97 535.07 100.07 531.81 100.07 531.81 96.32 525.21 96.32 522.16 20.39 519.12 96.32 514.75 96.32 513.69 58.88 512.64 96.32 497.83 96.32 497.83 100.07 484.33 100.07 484.33 101.97 481.04 101.97 481.04 92.99 477.15 92.99 477.15 300 542.77 300" style="fill: #cecece"/>
      <rect x="511.39" y="122.69" width="2.62" height="6.29" style="fill: #aaa"/>
      <rect x="511.39" y="110.11" width="2.62" height="6.29" style="fill: #aaa"/>
      <rect x="511.39" y="135.26" width="2.62" height="6.29" style="fill: #aaa"/>
      <rect x="511.39" y="147.84" width="2.62" height="6.29" style="fill: #aaa"/>
      <rect x="511.39" y="160.41" width="2.62" height="6.29" style="fill: #aaa"/>
      <rect x="521.37" y="298.74" width="2.62" height="1.26" style="fill: #aaa"/>
      <rect x="521.37" y="235.86" width="2.62" height="6.29" style="fill: #aaa"/>
      <rect x="521.37" y="223.29" width="2.62" height="6.29" style="fill: #aaa"/>
      <rect x="521.37" y="286.16" width="2.62" height="6.29" style="fill: #aaa"/>
      <rect x="521.37" y="248.44" width="2.62" height="6.29" style="fill: #aaa"/>
      <rect x="521.37" y="261.01" width="2.62" height="6.29" style="fill: #aaa"/>
      <rect x="521.37" y="273.59" width="2.62" height="6.29" style="fill: #aaa"/>
      <rect x="501.41" y="110.11" width="2.62" height="6.29" style="fill: #aaa"/>
      <rect x="511.39" y="286.16" width="2.62" height="6.29" style="fill: #aaa"/>
      <rect x="511.39" y="273.59" width="2.62" height="6.29" style="fill: #aaa"/>
      <rect x="511.39" y="172.99" width="2.62" height="6.29" style="fill: #aaa"/>
      <rect x="521.37" y="210.71" width="2.62" height="6.29" style="fill: #aaa"/>
      <rect x="511.39" y="248.44" width="2.62" height="6.29" style="fill: #aaa"/>
      <rect x="511.39" y="298.74" width="2.62" height="1.26" style="fill: #aaa"/>
      <rect x="511.39" y="261.01" width="2.62" height="6.29" style="fill: #aaa"/>
      <rect x="511.39" y="235.86" width="2.62" height="6.29" style="fill: #aaa"/>
      <rect x="511.39" y="185.56" width="2.62" height="6.29" style="fill: #aaa"/>
      <rect x="511.39" y="198.14" width="2.62" height="6.29" style="fill: #aaa"/>
      <rect x="511.39" y="210.71" width="2.62" height="6.29" style="fill: #aaa"/>
      <rect x="511.39" y="223.29" width="2.62" height="6.29" style="fill: #aaa"/>
      <rect x="521.37" y="198.14" width="2.62" height="6.29" style="fill: #aaa"/>
      <rect x="531.35" y="248.44" width="2.62" height="6.29" style="fill: #aaa"/>
      <rect x="531.35" y="198.14" width="2.62" height="6.29" style="fill: #aaa"/>
      <rect x="531.35" y="172.99" width="2.62" height="6.29" style="fill: #aaa"/>
      <rect x="531.35" y="185.56" width="2.62" height="6.29" style="fill: #aaa"/>
      <rect x="531.35" y="223.29" width="2.62" height="6.29" style="fill: #aaa"/>
      <rect x="531.35" y="235.86" width="2.62" height="6.29" style="fill: #aaa"/>
      <rect x="501.41" y="122.69" width="2.62" height="6.29" style="fill: #aaa"/>
      <rect x="531.35" y="160.41" width="2.62" height="6.29" style="fill: #aaa"/>
      <rect x="531.35" y="110.11" width="2.62" height="6.29" style="fill: #aaa"/>
      <rect x="531.35" y="122.69" width="2.62" height="6.29" style="fill: #aaa"/>
      <rect x="531.35" y="135.26" width="2.62" height="6.29" style="fill: #aaa"/>
      <rect x="531.35" y="147.84" width="2.62" height="6.29" style="fill: #aaa"/>
      <rect x="531.35" y="210.71" width="2.62" height="6.29" style="fill: #aaa"/>
      <rect x="521.37" y="135.26" width="2.62" height="6.29" style="fill: #aaa"/>
      <rect x="521.37" y="160.41" width="2.62" height="6.29" style="fill: #aaa"/>
      <rect x="521.37" y="147.84" width="2.62" height="6.29" style="fill: #aaa"/>
      <rect x="521.37" y="172.99" width="2.62" height="6.29" style="fill: #aaa"/>
      <rect x="521.37" y="185.56" width="2.62" height="6.29" style="fill: #aaa"/>
      <rect x="521.37" y="122.69" width="2.62" height="6.29" style="fill: #aaa"/>
      <rect x="531.35" y="273.59" width="2.62" height="6.29" style="fill: #aaa"/>
      <rect x="531.35" y="286.16" width="2.62" height="6.29" style="fill: #aaa"/>
      <rect x="531.35" y="298.74" width="2.62" height="1.26" style="fill: #aaa"/>
      <rect x="521.37" y="110.11" width="2.62" height="6.29" style="fill: #aaa"/>
      <rect x="531.35" y="261.01" width="2.62" height="6.29" style="fill: #aaa"/>
      <rect x="501.41" y="135.26" width="2.62" height="6.29" style="fill: #aaa"/>
      <rect x="491.43" y="261.01" width="2.62" height="6.29" style="fill: #aaa"/>
      <rect x="491.43" y="273.59" width="2.62" height="6.29" style="fill: #aaa"/>
      <rect x="491.43" y="286.16" width="2.62" height="6.29" style="fill: #aaa"/>
      <rect x="491.43" y="298.74" width="2.62" height="1.26" style="fill: #aaa"/>
      <rect x="491.43" y="248.44" width="2.62" height="6.29" style="fill: #aaa"/>
      <rect x="501.41" y="235.86" width="2.62" height="6.29" style="fill: #aaa"/>
      <rect x="501.41" y="223.29" width="2.62" height="6.29" style="fill: #aaa"/>
      <rect x="501.41" y="248.44" width="2.62" height="6.29" style="fill: #aaa"/>
      <rect x="501.41" y="273.59" width="2.62" height="6.29" style="fill: #aaa"/>
      <rect x="491.43" y="235.86" width="2.62" height="6.29" style="fill: #aaa"/>
      <rect x="501.41" y="286.16" width="2.62" height="6.29" style="fill: #aaa"/>
      <rect x="501.41" y="210.71" width="2.62" height="6.29" style="fill: #aaa"/>
      <rect x="501.41" y="160.41" width="2.62" height="6.29" style="fill: #aaa"/>
      <rect x="501.41" y="147.84" width="2.62" height="6.29" style="fill: #aaa"/>
      <rect x="501.41" y="172.99" width="2.62" height="6.29" style="fill: #aaa"/>
      <rect x="501.41" y="198.14" width="2.62" height="6.29" style="fill: #aaa"/>
      <rect x="501.41" y="185.56" width="2.62" height="6.29" style="fill: #aaa"/>
      <rect x="501.41" y="261.01" width="2.62" height="6.29" style="fill: #aaa"/>
      <rect x="491.43" y="172.99" width="2.62" height="6.29" style="fill: #aaa"/>
      <rect x="491.43" y="198.14" width="2.62" height="6.29" style="fill: #aaa"/>
      <rect x="491.43" y="185.56" width="2.62" height="6.29" style="fill: #aaa"/>
      <rect x="491.43" y="210.71" width="2.62" height="6.29" style="fill: #aaa"/>
      <rect x="491.43" y="223.29" width="2.62" height="6.29" style="fill: #aaa"/>
      <rect x="491.43" y="135.26" width="2.62" height="6.29" style="fill: #aaa"/>
      <rect x="491.43" y="160.41" width="2.62" height="6.29" style="fill: #aaa"/>
      <rect x="491.43" y="122.69" width="2.62" height="6.29" style="fill: #aaa"/>
      <rect x="491.43" y="110.11" width="2.62" height="6.29" style="fill: #aaa"/>
      <rect x="501.41" y="298.74" width="2.62" height="1.26" style="fill: #aaa"/>
      <rect x="491.43" y="147.84" width="2.62" height="6.29" style="fill: #aaa"/>
      <rect x="477.15" y="92.99" width="3.89" height="207.01" style="fill: #c1c1c1"/>
    </g>
    <g>
      <rect x="145" y="52.41" width="52.25" height="247.59" style="fill: #aaa"/>
      <rect x="145" y="52.41" width="39.38" height="247.59" style="fill: #cecece"/>
      <rect x="156.45" y="52.41" width="1.57" height="247.59" style="fill: #aaa"/>
      <rect x="163.9" y="52.41" width="1.57" height="247.59" style="fill: #aaa"/>
      <rect x="149" y="52.41" width="1.57" height="247.59" style="fill: #aaa"/>
      <rect x="171.36" y="52.41" width="1.57" height="247.59" style="fill: #aaa"/>
      <rect x="178.81" y="52.41" width="1.57" height="247.59" style="fill: #aaa"/>
      <rect x="145" y="45.63" width="39.38" height="6.79" style="fill: #cecece"/>
      <rect x="184.38" y="45.63" width="12.87" height="6.79" style="fill: #aaa"/>
      <polygon points="197.25 45.63 145 45.63 150.79 42.75 191.46 42.75 197.25 45.63" style="fill: #aaa"/>
      <polygon points="184.38 45.63 145 45.63 150.79 42.75 178.59 42.75 184.38 45.63" style="fill: #cecece"/>
    </g>
    <g>
      <polygon points="349.91 300 340.24 60.34 269.37 60.34 259.7 300 349.91 300" style="fill: #aaa"/>
      <polygon points="290.79 300 290.79 60.34 269.37 60.34 259.7 300 290.79 300" style="fill: #c1c1c1"/>
      <polygon points="330.82 300 325.24 60.34 284.37 60.34 278.8 300 330.82 300" style="fill: #cecece"/>
      <g>
        <polygon points="327.06 138.32 326.98 135.18 282.63 135.18 282.56 138.32 327.06 138.32" style="fill: #aaa"/>
        <polygon points="326.89 131.25 326.82 128.1 282.8 128.1 282.72 131.25 326.89 131.25" style="fill: #aaa"/>
        <polygon points="326.56 117.1 326.49 113.96 283.13 113.96 283.05 117.1 326.56 117.1" style="fill: #aaa"/>
        <polygon points="326.73 124.18 326.65 121.03 282.96 121.03 282.89 124.18 326.73 124.18" style="fill: #aaa"/>
        <polygon points="327.38 152.47 327.31 149.33 282.3 149.33 282.23 152.47 327.38 152.47" style="fill: #aaa"/>
        <polygon points="327.55 159.54 327.48 156.4 282.14 156.4 282.06 159.54 327.55 159.54" style="fill: #aaa"/>
        <polygon points="327.22 145.4 327.15 142.25 282.47 142.25 282.39 145.4 327.22 145.4" style="fill: #aaa"/>
        <polygon points="325.57 74.66 325.5 71.52 284.11 71.52 284.04 74.66 325.57 74.66" style="fill: #aaa"/>
        <polygon points="325.74 81.73 325.67 78.59 283.95 78.59 283.88 81.73 325.74 81.73" style="fill: #aaa"/>
        <polygon points="284.2 67.59 325.41 67.59 325.34 64.44 284.28 64.44 284.2 67.59" style="fill: #aaa"/>
        <polygon points="326.07 95.88 325.99 92.74 283.62 92.74 283.55 95.88 326.07 95.88" style="fill: #aaa"/>
        <polygon points="325.9 88.81 325.83 85.66 283.78 85.66 283.71 88.81 325.9 88.81" style="fill: #aaa"/>
        <polygon points="326.23 102.95 326.16 99.81 283.45 99.81 283.38 102.95 326.23 102.95" style="fill: #aaa"/>
        <polygon points="326.4 110.03 326.32 106.89 283.29 106.89 283.22 110.03 326.4 110.03" style="fill: #aaa"/>
        <polygon points="327.88 173.69 327.81 170.55 281.81 170.55 281.74 173.69 327.88 173.69" style="fill: #aaa"/>
        <polygon points="327.71 166.62 327.64 163.47 281.97 163.47 281.9 166.62 327.71 166.62" style="fill: #aaa"/>
        <polygon points="329.19 230.28 329.12 227.13 280.49 227.13 280.42 230.28 329.19 230.28" style="fill: #aaa"/>
        <polygon points="329.52 244.43 329.45 241.28 280.16 241.28 280.09 244.43 329.52 244.43" style="fill: #aaa"/>
        <polygon points="329.36 237.35 329.29 234.21 280.33 234.21 280.25 237.35 329.36 237.35" style="fill: #aaa"/>
        <polygon points="329.85 258.57 329.78 255.43 279.83 255.43 279.76 258.57 329.85 258.57" style="fill: #aaa"/>
        <polygon points="329.69 251.5 329.62 248.35 280 248.35 279.93 251.5 329.69 251.5" style="fill: #aaa"/>
        <polygon points="329.03 223.2 328.96 220.06 280.66 220.06 280.58 223.2 329.03 223.2" style="fill: #aaa"/>
        <polygon points="328.37 194.91 328.3 191.77 281.31 191.77 281.24 194.91 328.37 194.91" style="fill: #aaa"/>
        <polygon points="328.21 187.84 328.13 184.69 281.48 184.69 281.41 187.84 328.21 187.84" style="fill: #aaa"/>
        <polygon points="328.04 180.76 327.97 177.62 281.64 177.62 281.57 180.76 328.04 180.76" style="fill: #aaa"/>
        <polygon points="328.54 201.98 328.46 198.84 281.15 198.84 281.08 201.98 328.54 201.98" style="fill: #aaa"/>
        <polygon points="328.7 209.06 328.63 205.91 280.99 205.91 280.91 209.06 328.7 209.06" style="fill: #aaa"/>
        <polygon points="328.87 216.13 328.79 212.99 280.82 212.99 280.75 216.13 328.87 216.13" style="fill: #aaa"/>
      </g>
      <polygon points="286.93 51.08 322.43 51.08 340.24 60.34 269.13 60.34 286.93 51.08" style="fill: #c1c1c1"/>
      <polygon points="316.19 21.57 309.57 21.57 309.57 37.11 299.79 37.11 299.79 21.57 293.17 21.57 286.93 51.08 322.43 51.08 316.19 21.57" style="fill: #c1c1c1"/>
      <polygon points="325.24 60.34 316.46 51.08 322.43 51.08 340.24 60.34 325.24 60.34" style="fill: #aaa"/>
      <polygon points="316.46 51.08 314.19 21.57 316.19 21.57 322.43 51.08 316.46 51.08" style="fill: #aaa"/>
      <rect x="297.6" y="21.57" width="2.2" height="15.54" style="fill: #aaa"/>
    </g>
    <g>
      <polygon points="132.99 300 131.1 130.24 116.88 139.07 93.04 153.86 91.23 300 132.99 300" style="fill: #cecece"/>
      <polygon points="118.66 300 116.88 139.07 93.04 153.86 91.23 300 118.66 300" style="fill: #c1c1c1"/>
      <path d="M114.23,229h-2.09v-5.23h2.09Zm0-13.09h-2.09v-5.24h2.09Zm0-13.1h-2.09v-5.24h2.09Zm0-13.1h-2.09v-5.24h2.09Zm0-13.1h-2.09v-5.24h2.09Zm0-13.1h-2.09v-5.24h2.09ZM110,229h-2.1v-5.23H110Zm0-13.09h-2.1v-5.24H110Zm0-13.1h-2.1v-5.24H110Zm0-13.1h-2.1v-5.24H110Zm0-13.1h-2.1v-5.24H110Zm0-13.1h-2.1v-5.24H110ZM105.85,229h-2.1v-5.23h2.1Zm0-13.09h-2.1v-5.24h2.1Zm0-13.1h-2.1v-5.24h2.1Zm0-13.1h-2.1v-5.24h2.1Zm0-13.1h-2.1v-5.24h2.1Zm0-13.1h-2.1v-5.24h2.1ZM101.66,229h-2.1v-5.23h2.1Zm0-13.09h-2.1v-5.24h2.1Zm0-13.1h-2.1v-5.24h2.1Zm0-13.1h-2.1v-5.24h2.1Zm0-13.1h-2.1v-5.24h2.1Zm0-13.1h-2.1v-5.24h2.1ZM97.47,229h-2.1v-5.23h2.1Zm0-13.09h-2.1v-5.24h2.1Zm0-13.1h-2.1v-5.24h2.1Zm0-13.1h-2.1v-5.24h2.1Zm0-13.1h-2.1v-5.24h2.1Zm0-13.1h-2.1v-5.24h2.1Z" style="fill: #aaa"/>
      <path d="M114.23,294.35h-2.09v-5.24h2.09Zm0-13.1h-2.09V276h2.09Zm0-13.1h-2.09v-5.24h2.09Zm0-13.1h-2.09v-5.24h2.09Zm0-13.1h-2.09v-5.24h2.09ZM110,294.35h-2.1v-5.24H110Zm0-13.1h-2.1V276H110Zm0-13.1h-2.1v-5.24H110Zm0-13.1h-2.1v-5.24H110Zm0-13.1h-2.1v-5.24H110Zm-4.19,52.4h-2.1v-5.24h2.1Zm0-13.1h-2.1V276h2.1Zm0-13.1h-2.1v-5.24h2.1Zm0-13.1h-2.1v-5.24h2.1Zm0-13.1h-2.1v-5.24h2.1Zm-4.19,52.4h-2.1v-5.24h2.1Zm0-13.1h-2.1V276h2.1Zm0-13.1h-2.1v-5.24h2.1Zm0-13.1h-2.1v-5.24h2.1Zm0-13.1h-2.1v-5.24h2.1Zm-4.19,52.4h-2.1v-5.24h2.1Zm0-13.1h-2.1V276h2.1Zm0-13.1h-2.1v-5.24h2.1Zm0-13.1h-2.1v-5.24h2.1Zm0-13.1h-2.1v-5.24h2.1Z" style="fill: #aaa"/>
      <g>
        <polygon points="124.89 134.09 131.14 134.09 131.13 133.04 126.58 133.04 124.89 134.09" style="fill: #aaa"/>
        <polygon points="131.37 154.61 131.36 153.56 93.52 153.56 93.04 153.86 93.03 154.61 131.37 154.61" style="fill: #aaa"/>
        <polygon points="131.19 138.19 131.17 137.15 119.97 137.15 118.28 138.19 131.19 138.19" style="fill: #aaa"/>
        <polygon points="131.28 146.4 131.26 145.36 106.74 145.36 105.06 146.4 131.28 146.4" style="fill: #aaa"/>
        <polygon points="131.23 142.3 131.22 141.25 113.36 141.25 111.67 142.3 131.23 142.3" style="fill: #aaa"/>
        <polygon points="131.32 150.51 131.31 149.46 100.13 149.46 98.44 150.51 131.32 150.51" style="fill: #aaa"/>
      </g>
    </g>
    <g>
      <polygon points="255.4 300 251.43 139.46 194.53 139.46 190.56 300 255.4 300" style="fill: #cecece"/>
      <polygon points="241.34 300 237.37 139.46 194.53 139.46 190.56 300 241.34 300" style="fill: #c1c1c1"/>
      <rect x="194.53" y="135.67" width="56.66" height="3.79" style="fill: #c1c1c1"/>
      <rect x="237.37" y="135.67" width="14.2" height="3.79" style="fill: #cecece"/>
      <path d="M210.27,148.63H204.5v-3.14h5.77Zm7.55-3.14h-5.76v3.14h5.76Zm7.56,0h-5.76v3.14h5.76Z" style="fill: #aaa"/>
      <g>
        <polygon points="192.85 207.57 192.77 210.72 253.19 210.72 253.11 207.57 192.85 207.57" style="fill: #aaa"/>
        <polygon points="192.58 218.58 192.5 221.72 253.46 221.72 253.38 218.58 192.58 218.58" style="fill: #aaa"/>
        <polygon points="192.99 202.07 192.91 205.22 253.05 205.22 252.97 202.07 192.99 202.07" style="fill: #aaa"/>
        <polygon points="192.71 213.08 192.63 216.22 253.32 216.22 253.25 213.08 192.71 213.08" style="fill: #aaa"/>
        <polygon points="192.44 224.08 192.36 227.22 253.59 227.22 253.52 224.08 192.44 224.08" style="fill: #aaa"/>
        <polygon points="192.03 240.59 191.96 243.73 254 243.73 253.93 240.59 192.03 240.59" style="fill: #aaa"/>
        <polygon points="192.31 229.58 192.23 232.72 253.73 232.72 253.65 229.58 192.31 229.58" style="fill: #aaa"/>
        <polygon points="254.14 249.23 254.06 246.09 191.9 246.09 191.82 249.23 254.14 249.23" style="fill: #aaa"/>
        <polygon points="192.17 235.08 192.09 238.23 253.87 238.23 253.79 235.08 192.17 235.08" style="fill: #aaa"/>
        <polygon points="193.53 180.07 193.45 183.21 252.51 183.21 252.43 180.07 193.53 180.07" style="fill: #aaa"/>
        <polygon points="194.07 158.06 194 161.2 251.96 161.2 251.88 158.06 194.07 158.06" style="fill: #aaa"/>
        <polygon points="193.8 169.06 193.72 172.21 252.24 172.21 252.16 169.06 193.8 169.06" style="fill: #aaa"/>
        <polygon points="193.94 163.56 193.86 166.71 252.1 166.71 252.02 163.56 193.94 163.56" style="fill: #aaa"/>
        <polygon points="194.21 152.56 194.13 155.7 251.83 155.7 251.75 152.56 194.21 152.56" style="fill: #aaa"/>
        <polygon points="193.26 191.07 193.18 194.21 252.78 194.21 252.7 191.07 193.26 191.07" style="fill: #aaa"/>
        <polygon points="193.12 196.57 193.04 199.72 252.91 199.72 252.84 196.57 193.12 196.57" style="fill: #aaa"/>
        <polygon points="193.66 174.56 193.59 177.71 252.37 177.71 252.29 174.56 193.66 174.56" style="fill: #aaa"/>
        <polygon points="193.39 185.57 193.32 188.71 252.64 188.71 252.56 185.57 193.39 185.57" style="fill: #aaa"/>
      </g>
    </g>
  </g>
  <g>
    <g>
      <rect x="536.67" y="130.17" width="9.62" height="158.32" style="fill: #677477"/>
      <rect x="295.19" y="130.17" width="9.62" height="158.32" style="fill: #677477"/>
      <rect x="53.71" y="130.17" width="9.62" height="158.32" style="fill: #677477"/>
    </g>
    <g>
      <rect x="527.2" y="130.17" width="9.62" height="158.32" style="fill: #83969b"/>
      <rect x="285.72" y="130.17" width="9.62" height="158.32" style="fill: #83969b"/>
      <rect x="44.24" y="130.17" width="9.62" height="158.32" style="fill: #83969b"/>
      <polygon points="34.91 134.9 44.39 139.64 44.39 130.17 34.91 130.17 34.91 134.9" style="fill: #83969b"/>
      <polygon points="276.32 134.9 285.79 139.64 285.79 130.17 276.32 130.17 276.32 134.9" style="fill: #83969b"/>
      <polygon points="517.84 134.9 527.32 139.64 527.32 130.17 517.84 130.17 517.84 134.9" style="fill: #83969b"/>
    </g>
    <rect y="121.17" width="600" height="9" style="fill: #677477"/>
    <rect y="162.23" width="600" height="3.37" style="fill: #677477"/>
    <polygon points="72.8 134.9 63.33 139.64 63.33 130.17 72.8 130.17 72.8 134.9" style="fill: #677477"/>
    <polygon points="44.38 134.9 53.85 139.64 53.85 130.17 44.38 130.17 44.38 134.9" style="fill: #677477"/>
    <polygon points="314.21 134.9 304.74 139.64 304.74 130.17 314.21 130.17 314.21 134.9" style="fill: #677477"/>
    <polygon points="285.79 134.9 295.26 139.64 295.26 130.17 285.79 130.17 285.79 134.9" style="fill: #677477"/>
    <polygon points="555.76 134.9 546.29 139.64 546.29 130.17 555.76 130.17 555.76 134.9" style="fill: #677477"/>
    <polygon points="541.66 134.9 536.74 139.64 536.74 130.17 541.66 130.17 541.66 134.9" style="fill: #83969b"/>
    <polygon points="300.25 134.9 295.33 139.64 295.33 130.17 300.25 130.17 300.25 134.9" style="fill: #83969b"/>
    <polygon points="58.63 134.9 53.71 139.64 53.71 130.17 58.63 130.17 58.63 134.9" style="fill: #83969b"/>
    <polygon points="527.27 134.9 536.74 139.64 536.74 130.17 527.27 130.17 527.27 134.9" style="fill: #677477"/>
    <path d="M41,162.23h-1.5V139.64H41Zm74.22-22.59h-1.5v22.59h1.5Zm74.22,0h-1.5v22.59h1.5Zm74.22,0h-1.5v22.59h1.5Zm74.22,0h-1.5v22.59h1.5Zm74.22,0h-1.5v22.59h1.5Zm74.22,0h-1.5v22.59h1.5Zm74.22,0H559v22.59h1.5Z" style="fill: #677477"/>
    <rect y="137.63" width="600" height="2.02" style="fill: #677477"/>
    <g>
      <polygon points="577.5 168.38 577.5 165.6 576.73 165.6 576.73 168.38 540.18 168.38 540.18 165.6 539.41 165.6 539.41 168.38 534.99 168.38 534.99 171 581.92 171 581.92 168.38 577.5 168.38" style="fill: #83969b"/>
      <polygon points="112.9 165.6 112.13 165.6 112.13 168.38 75.58 168.38 75.58 165.6 74.81 165.6 74.81 168.38 70.39 168.38 70.39 171 117.32 171 117.32 168.38 112.9 168.38 112.9 165.6" style="fill: #83969b"/>
      <polygon points="46.53 165.6 45.76 165.6 45.76 168.38 9.21 168.38 9.21 165.6 8.44 165.6 8.44 168.38 4.02 168.38 4.02 171 50.95 171 50.95 168.38 46.53 168.38 46.53 165.6" style="fill: #83969b"/>
      <polygon points="179.27 165.6 178.5 165.6 178.5 168.38 141.95 168.38 141.95 165.6 141.18 165.6 141.18 168.38 136.76 168.38 136.76 171 183.69 171 183.69 168.38 179.27 168.38 179.27 165.6" style="fill: #83969b"/>
      <polygon points="245.64 165.6 244.87 165.6 244.87 168.38 208.32 168.38 208.32 165.6 207.55 165.6 207.55 168.38 203.13 168.38 203.13 171 250.06 171 250.06 168.38 245.64 168.38 245.64 165.6" style="fill: #83969b"/>
      <polygon points="312.01 165.6 311.24 165.6 311.24 168.38 274.69 168.38 274.69 165.6 273.92 165.6 273.92 168.38 269.5 168.38 269.5 171 316.43 171 316.43 168.38 312.01 168.38 312.01 165.6" style="fill: #83969b"/>
      <polygon points="378.38 165.6 377.62 165.6 377.62 168.38 341.06 168.38 341.06 165.6 340.3 165.6 340.3 168.38 335.88 168.38 335.88 171 382.81 171 382.81 168.38 378.38 168.38 378.38 165.6" style="fill: #83969b"/>
      <polygon points="444.76 165.6 443.99 165.6 443.99 168.38 407.44 168.38 407.44 165.6 406.67 165.6 406.67 168.38 402.25 168.38 402.25 171 449.18 171 449.18 168.38 444.76 168.38 444.76 165.6" style="fill: #83969b"/>
      <polygon points="511.13 165.6 510.36 165.6 510.36 168.38 473.81 168.38 473.81 165.6 473.04 165.6 473.04 168.38 468.62 168.38 468.62 171 515.55 171 515.55 168.38 511.13 168.38 511.13 165.6" style="fill: #83969b"/>
    </g>
    <g>
      <polygon points="584.53 168.38 584.53 165.6 583.76 165.6 583.76 168.38 547.21 168.38 547.21 165.6 546.44 165.6 546.44 168.38 542.02 168.38 542.02 171 588.95 171 588.95 168.38 584.53 168.38" style="fill: #677477"/>
      <polygon points="119.93 165.6 119.16 165.6 119.16 168.38 82.61 168.38 82.61 165.6 81.84 165.6 81.84 168.38 77.42 168.38 77.42 171 124.35 171 124.35 168.38 119.93 168.38 119.93 165.6" style="fill: #677477"/>
      <polygon points="53.56 165.6 52.79 165.6 52.79 168.38 16.24 168.38 16.24 165.6 15.47 165.6 15.47 168.38 11.05 168.38 11.05 171 57.98 171 57.98 168.38 53.56 168.38 53.56 165.6" style="fill: #677477"/>
      <polygon points="186.3 165.6 185.53 165.6 185.53 168.38 148.98 168.38 148.98 165.6 148.21 165.6 148.21 168.38 143.79 168.38 143.79 171 190.72 171 190.72 168.38 186.3 168.38 186.3 165.6" style="fill: #677477"/>
      <polygon points="252.67 165.6 251.9 165.6 251.9 168.38 215.35 168.38 215.35 165.6 214.58 165.6 214.58 168.38 210.16 168.38 210.16 171 257.09 171 257.09 168.38 252.67 168.38 252.67 165.6" style="fill: #677477"/>
      <polygon points="319.05 165.6 318.27 165.6 318.27 168.38 281.73 168.38 281.73 165.6 280.95 165.6 280.95 168.38 276.54 168.38 276.54 171 323.46 171 323.46 168.38 319.05 168.38 319.05 165.6" style="fill: #677477"/>
      <polygon points="385.42 165.6 384.65 165.6 384.65 168.38 348.1 168.38 348.1 165.6 347.33 165.6 347.33 168.38 342.91 168.38 342.91 171 389.84 171 389.84 168.38 385.42 168.38 385.42 165.6" style="fill: #677477"/>
      <polygon points="451.79 165.6 451.02 165.6 451.02 168.38 414.47 168.38 414.47 165.6 413.7 165.6 413.7 168.38 409.28 168.38 409.28 171 456.21 171 456.21 168.38 451.79 168.38 451.79 165.6" style="fill: #677477"/>
      <polygon points="518.16 165.6 517.39 165.6 517.39 168.38 480.84 168.38 480.84 165.6 480.07 165.6 480.07 168.38 475.65 168.38 475.65 171 522.58 171 522.58 168.38 518.16 168.38 518.16 165.6" style="fill: #677477"/>
    </g>
    <rect y="108.79" width="600" height="12.37" style="fill: #83969b"/>
  </g>
  <rect y="288.38" width="600" height="11.63" style="fill: #455a64"/>
</svg>
